<?xml version="1.0" encoding="utf-8"?>
<!-- Generator: Adobe Illustrator 27.2.0, SVG Export Plug-In . SVG Version: 6.00 Build 0)  -->
<svg version="1.1" id="Lag_1" xmlns="http://www.w3.org/2000/svg" xmlns:xlink="http://www.w3.org/1999/xlink" x="0px" y="0px"
	 viewBox="0 0 386.38 296.06" style="enable-background:new 0 0 386.38 296.06;" xml:space="preserve">
<path fill="#38201E" d="M238.47,120.86c-1.22-1.72-2.19-3.07-3.13-4.43c-4.67-6.71-9.34-13.42-13.99-20.15c-1.36-1.96-0.7-3.34,1.67-3.52
	c1.31-0.1,2.63-0.15,3.94-0.15c4.6-0.01,5-0.5,4.06-5.06c-0.01-0.07-0.02-0.15-0.03-0.22c-0.09-0.88-0.6-1.28-1.46-1.3
	c-0.51-0.01-1.02-0.02-1.53-0.02c-10.52,0-21.04,0-31.56,0c-0.44,0-0.88-0.02-1.31,0.01c-1.38,0.11-1.71,0.37-1.72,1.71
	c-0.01,1.09,0.16,2.18,0.24,3.27c0.09,1.18,0.73,1.63,1.88,1.61c2.81-0.07,4.77,1.28,6.36,3.56c7.22,10.36,14.51,20.67,21.81,30.98
	c0.89,1.26,1.3,2.53,1.28,4.06c-0.06,4.38,0.02,8.76-0.05,13.14c-0.02,1.3-0.3,2.6-0.49,3.89c-0.27,1.85-1.58,2.76-3.21,3.17
	c-0.9,0.23-1.88,0.15-2.83,0.16c-1.31,0.01-2.63-0.04-3.94-0.04c-0.78,0-1.23,0.4-1.24,1.2c-0.01,1.68-0.02,3.36-0.01,5.04
	c0,0.87,0.44,1.36,1.34,1.37c0.51,0.01,1.02,0.02,1.53,0.02c11.98,0,23.96,0,35.94,0c0.44,0,0.88,0.02,1.31-0.01
	c1.51-0.1,1.78-0.34,1.84-1.83c0.05-1.31,0.04-2.63,0-3.94c-0.05-1.61-0.34-1.85-1.99-1.85c-1.6,0-3.21,0.05-4.81-0.03
	c-2.69-0.15-4.47-1.99-4.52-4.64c-0.08-4.52,0.02-9.06-0.24-13.57c-0.16-2.88,0.5-5.29,2.4-7.43c0.62-0.71,1.08-1.56,1.62-2.34
	c6.21-8.93,12.49-17.81,18.61-26.8c1.77-2.61,4.09-4.06,7.08-4.05c4.45,0.02,3.92-0.29,3.96-4.43c0-0.29,0-0.58-0.02-0.88
	c-0.05-0.77-0.48-1.21-1.23-1.3c-0.43-0.05-0.87-0.06-1.31-0.06c-7.67,0-15.34,0-23.01,0c-0.36,0-0.73,0.01-1.09,0.04
	c-0.87,0.06-1.32,0.52-1.36,1.4c-0.05,1.02-0.14,2.04-0.17,3.06c-0.06,1.77,0.21,2.04,1.95,2.09c1.24,0.03,2.49-0.04,3.72,0.08
	c1.61,0.17,2.26,1.3,1.68,2.81c-0.18,0.47-0.49,0.9-0.78,1.31c-4.83,6.87-9.65,13.74-14.5,20.59
	C240.41,118.46,239.56,119.46,238.47,120.86 M321.5,159.18c10.52,0,21.04,0,31.55,0c0.66,0,1.31-0.01,1.97-0.01
	c1.07,0,1.62-0.49,1.62-1.59c-0.01-3.72-0.01-7.45-0.01-11.17c0-0.99-0.49-1.49-1.47-1.5c-1.46-0.02-2.93,0.04-4.38-0.04
	c-1.48-0.09-2.32,0.51-2.69,1.95c-0.21,0.84-0.6,1.65-0.98,2.43c-0.73,1.5-1.93,2.35-3.63,2.4c-0.66,0.02-1.31,0.04-1.97,0.03
	c-7.38-0.05-14.75-0.11-22.13-0.15c-2.63-0.02-5.26,0.02-7.89-0.01c-1.63-0.02-1.78-0.16-1.78-1.74
	c-0.01-8.03-0.02-16.06,0.01-24.09c0.01-1.8,0.26-2.04,2.02-2.05c3.14-0.03,6.29,0.08,9.42-0.04c2.57-0.1,4.14,1.09,5.1,3.32
	c0.17,0.4,0.35,0.8,0.48,1.22c0.35,1.11,1.1,1.72,2.25,1.72c1.52,0.01,3.04-0.05,4.57-0.1c1.92-0.06,2.05-0.19,2.06-2.2
	c0.02-3.94,0-7.88,0-11.83c0-1.09,0.04-2.19-0.01-3.28c-0.07-1.65-0.27-1.83-1.97-1.88c-0.88-0.03-1.75-0.02-2.63,0
	c-3.49,0.08-3.35-0.68-4.75,3.07c-0.79,2.12-2.31,3.26-4.72,3.13c-1.37-0.08-2.76,0.18-4.14,0.21c-1.75,0.04-3.51,0.09-5.25-0.04
	c-2.33-0.18-2.43-0.35-2.43-2.65c-0.01-5.99-0.01-11.97,0-17.96c0-0.87,0.1-1.75,0.18-2.62c0.06-0.69,0.45-1.05,1.14-1.07
	c0.36-0.01,0.73-0.02,1.1-0.02c10.22,0.06,20.45,0.11,30.67,0.17c0.29,0,0.58,0.01,0.88,0.02c0.97,0.03,1.67,0.48,2.1,1.34
	c0.29,0.59,0.62,1.17,0.78,1.8c0.3,1.23,1.1,1.63,2.25,1.62c1.46-0.01,2.92,0.03,4.38-0.01c1.59-0.05,1.74-0.22,1.76-1.8
	c0.02-2.48,0.01-4.96,0-7.45c-0.01-2.12-0.13-2.28-2.21-2.27c-21.4,0.06-42.8,0.14-64.19,0.21c-0.22,0-0.44,0.01-0.66,0.01
	c-1.06-0.01-1.64,0.46-1.62,1.58c0.02,0.88-0.02,1.75,0.01,2.63c0.06,1.77,0.14,1.86,1.96,2.27c1.59,0.36,2.22,1.06,2.36,2.67
	c0.04,0.51,0.02,1.02,0.02,1.53c0,16.79,0,33.58,0,50.38c0,0.58,0.02,1.17-0.04,1.75c-0.11,1.22-0.84,1.99-1.96,2.39
	c-0.41,0.14-0.86,0.18-1.29,0.24c-0.78,0.11-1.16,0.54-1.14,1.33c0.03,1.53,0.07,3.06,0.09,4.6c0.02,0.97,0.49,1.5,1.46,1.54
	c0.66,0.03,1.31,0.03,1.97,0.03C300.32,159.18,310.91,159.18,321.5,159.18 M140.65,116.42c-0.15-0.37-0.25-0.51-0.25-0.64
	c0.02-6.93,0.05-13.86,0.08-20.8c0-0.37,0-0.73,0.02-1.09c0.03-0.77,0.42-1.22,1.21-1.26c0.44-0.02,0.88-0.01,1.31-0.01
	c9.71,0,19.43,0,29.14,0c0.66,0,1.31,0.07,1.97,0.04c1.64-0.05,2.56,0.84,3.1,2.27c0.13,0.34,0.24,0.69,0.34,1.04
	c0.33,1.14,1.09,1.64,2.28,1.6c1.39-0.05,2.78,0.02,4.16-0.02c1.63-0.05,1.89-0.29,1.89-1.96c0-2.55-0.06-5.11-0.17-7.66
	c-0.09-2.11-0.21-2.17-2.32-2.21c-0.29-0.01-0.58,0-0.88,0c-20.59,0-41.19,0-61.78,0c-3.72,0-3.72,0-3.7,3.77
	c0.01,2.42,0.01,2.42,2.32,3.2c1.56,0.52,1.93,1.02,2.02,2.71c0.02,0.44,0.01,0.88,0.01,1.31c0,15.98,0,31.97-0.01,47.95
	c0,1.39-0.15,2.77-0.14,4.16c0.02,1.42-0.78,2.14-1.98,2.55c-2.22,0.77-2.22,0.75-2.22,3.06c0,0.51,0,1.02,0,1.53
	c0,3.21,0,3.23,3.32,3.22c16.36-0.06,32.71-0.13,49.07-0.18c4.97-0.02,9.93,0,14.9,0c3.07,0,3.07-0.01,3.07-2.96c0-2.7,0-5.4,0-8.1
	c0-2.94-0.28-3.24-3.2-3.34c-0.22-0.01-0.44,0-0.66,0c-3.67-0.02-3.67-0.02-5.08,3.33c-1.19,2.85-2.28,3.61-5.28,3.6
	c-10.15-0.06-20.29-0.13-30.44-0.21c-2.09-0.02-2.26-0.15-2.26-2.24c-0.02-7.74-0.02-15.47,0-23.21c0-1.98,0.08-2.25,2.04-2.29
	c3.63-0.08,7.27,0.05,10.91,0.2c1.78,0.08,2.91,1.2,3.56,2.82c0.27,0.68,0.44,1.43,0.84,2.01c0.33,0.48,0.92,1.05,1.42,1.09
	c1.89,0.12,3.79,0.05,5.69,0.01c0.94-0.02,1.48-0.5,1.47-1.51c-0.07-5.33-0.13-10.65-0.19-15.98c-0.01-1.07-0.54-1.59-1.61-1.65
	c-1.17-0.06-2.33-0.14-3.49-0.27c-1.85-0.21-3.07,0.38-3.64,2.29c-0.29,0.95-0.88,1.84-1.5,2.63c-0.63,0.81-1.5,1.36-2.63,1.37
	c-3.5,0.02-7.01,0.1-10.51,0.11C142.07,116.7,141.3,116.51,140.65,116.42 M88.94,139.85c-0.75-0.76-1.21-1.17-1.6-1.63
	c-3.47-4.14-6.93-8.28-10.39-12.43c-10.67-12.77-21.34-25.54-31.99-38.33c-1.01-1.21-2.12-1.79-3.76-1.76
	c-5.4,0.09-10.81,0.03-16.21,0.03c-0.29,0-0.59-0.01-0.88,0.01c-1.36,0.12-1.68,0.4-1.77,1.72c-0.07,1.02-0.01,2.04-0.02,3.06
	c-0.01,1.2,0.51,1.84,1.74,2.1c1.86,0.4,2.51,1.3,2.6,3.2c0.02,0.36,0,0.73,0,1.1c0,15.91,0,31.83-0.01,47.74
	c0,1.09-0.04,2.19-0.12,3.28c-0.2,2.74-0.21,2.76-2.91,3.54c-0.68,0.2-1.28,0.4-1.38,1.18c-0.27,2.01-0.35,4.02-0.02,5.88
	c0.35,0.19,0.48,0.31,0.61,0.32c5.18,0.05,10.36,0.08,15.54,0.11c0.92,0.01,1.29-0.54,1.3-1.4c0-1.53-0.01-3.07,0.02-4.6
	c0.02-1.08-0.45-1.63-1.54-1.66c-1.25-0.04-2.07-0.78-2.46-1.87c-0.33-0.94-0.58-1.96-0.57-2.95c0.06-8.83,0.19-17.65,0.27-26.48
	c0.03-3.72-0.01-7.45,0.01-11.17c0-0.69,0.11-1.37,0.2-2.5c0.78,0.66,1.25,0.95,1.59,1.36c4.82,5.77,9.62,11.55,14.44,17.32
	c9.08,10.87,18.17,21.73,27.23,32.61c0.91,1.1,1.92,1.59,3.38,1.57c5.84-0.07,11.69-0.03,17.53-0.03c0.37,0,0.73,0,1.1-0.03
	c0.75-0.05,1.29-0.42,1.31-1.19c0.04-2.02,0.01-4.05,0.01-5.88c-0.39-0.26-0.5-0.39-0.63-0.42c-3.49-0.82-3.65-1.01-3.65-4.49
	c0-16.72,0-33.43,0.01-50.15c0-0.8,0.01-1.61,0.16-2.39c0.2-0.99,0.79-1.67,1.85-1.93c2.3-0.56,2.29-0.58,2.3-2.96
	c0-0.73,0.03-1.46-0.01-2.19c-0.09-1.47-0.35-1.79-1.87-1.8c-4.16-0.03-8.33-0.07-12.49,0.04c-2.74,0.08-2.96,0.44-2.97,3.12
	c0,0.58,0,1.17,0.01,1.75c0.01,0.92,0.42,1.43,1.36,1.69c2.7,0.76,2.94,1.1,2.94,3.76c0.01,13.87,0.01,27.74,0.01,41.61
	C89.19,138.27,89.07,138.81,88.94,139.85"/>
</svg>
